# xmcd CD database file
#
# Track frame offsets:
#	150
#	15667
#	31308
#	45130
#	58586
#	72023
#	85999
#	98828
#	113120
#	126655
#	140440
#	153531
#	166116
#	179940
#	194572
#	210138
#	222449
#	236654
#	252519
#	268314
#	282109
#	296838
#
# Disc length: 4152 seconds
#
# Revision: 0
# Processed by: cddbd v1.5PL3 Copyright (c) Steve Scherf et al.
# Submitted via: CDex 1.51
#
DISCID=4f103616
DTITLE=Mildred Bailey - Complete Columbia Recordings, Volume 1, CD #1
DYEAR=2001
DGENRE=Jazz
TTITLE0=What Kind O' Man Is You?
TTITLE1=I Like to Do Things for You
TTITLE2=Is That Religion?
TTITLE3=Harlem Lullaby
TTITLE4=There's a Cabin in the Pines
TTITLE5=Lazy Bones
TTITLE6=Shouting in That Amen Corner
TTITLE7=Snowball
TTITLE8=But I Can't Make a Man
TTITLE9=Give Me Liberty or Give Me Love
TTITLE10=Doin' the Uptown Lowdown
TTITLE11=Heat Wave
TTITLE12=Junk Man
TTITLE13=Ol' Pappy
TTITLE14=Emaline
TTITLE15=I'd Love to Take Orders from You
TTITLE16=I'd Rather Listen to Your Eyes
TTITLE17=Someday, Sweetheart
TTITLE18=When Day Is Done
TTITLE19=It All Begins and Ends With You
TTITLE20=A Porter's Love Song to a Chambermaid
TTITLE21=Picture Me Without You
EXTD=YEAR: 2001
EXTT0=
EXTT1=
EXTT2=
EXTT3=
EXTT4=
EXTT5=
EXTT6=
EXTT7=
EXTT8=
EXTT9=
EXTT10=
EXTT11=
EXTT12=
EXTT13=
EXTT14=
EXTT15=
EXTT16=
EXTT17=
EXTT18=
EXTT19=
EXTT20=
EXTT21=
PLAYORDER=
